<svg xmlns="http://www.w3.org/2000/svg" width="248" height="51" fill="none"><path fill="#1C2E60" d="m43 7.904-43 43h14.5v-1l15-15H48v5h24.5V0L43 7.904Z"/><path fill="#fff" d="m48 16.404-12.5 12.5H48v-12.5Z"/><path fill="#1C2E60" d="M75.758 10.846V2.254c0-.402.256-.604.769-.604h1.67c.513 0 .769.202.769.604v8.482c0 1.977.29 3.215.868 3.713.586.49 1.245.736 1.977.736.733 0 1.388-.245 1.967-.736.586-.498.879-1.736.879-3.713V2.254c0-.402.256-.604.769-.604h1.67c.512 0 .769.202.769.604v8.592c0 2.563-.542 4.361-1.626 5.394-1.084 1.025-2.56 1.538-4.428 1.538-1.867 0-3.343-.513-4.427-1.538-1.084-1.033-1.626-2.83-1.626-5.394ZM90.37 4.463c-.55 0-.824-.238-.824-.715V2.364c0-.476.275-.714.824-.714h11.294c.549 0 .824.238.824.714v1.384c0 .477-.275.715-.824.715h-4.043V16.8c0 .403-.183.604-.55.604h-2.109c-.366 0-.549-.2-.549-.604V4.463H90.37ZM103.356 9.527c0-2.527.652-4.533 1.956-6.02 1.304-1.487 3.164-2.23 5.581-2.23 2.417 0 4.277.743 5.581 2.23 1.304 1.487 1.956 3.493 1.956 6.02 0 2.527-.652 4.534-1.956 6.02-1.304 1.488-3.164 2.231-5.581 2.231-2.417 0-4.277-.743-5.581-2.23-1.304-1.487-1.956-3.494-1.956-6.02Zm3.428 0c0 1.831.326 3.234.978 4.208.659.967 1.703 1.45 3.131 1.45 1.428 0 2.468-.483 3.12-1.45.659-.974.989-2.377.989-4.208 0-1.83-.33-3.23-.989-4.196-.652-.975-1.692-1.462-3.12-1.462-1.428 0-2.472.487-3.131 1.462-.652.966-.978 2.365-.978 4.196ZM121.451 17.404c-.512 0-.769-.274-.769-.823V2.474c0-.55.257-.824.769-.824h5.087c2.263 0 3.915.352 4.955 1.055 1.04.696 1.56 1.83 1.56 3.406 0 1.171-.421 2.105-1.264 2.801-.842.696-1.911 1.157-3.208 1.384v.022c.704.264 1.235.63 1.593 1.099.359.469.652.879.879 1.23l2.417 3.813c.403.63.264.944-.417.944h-1.912c-.403 0-.732-.216-.989-.648l-2.219-3.702c-.241-.396-.685-.828-1.329-1.296-.637-.477-1.271-.715-1.901-.715h-.813v5.538c0 .549-.256.823-.769.823h-1.67Zm2.439-9.085h1.967c1.465 0 2.505-.165 3.12-.495.622-.337.934-.867.934-1.593 0-.79-.301-1.303-.901-1.538-.593-.241-1.469-.362-2.626-.362h-2.494v3.988ZM136.69 17.404c-.513 0-.769-.274-.769-.823V2.474c0-.55.256-.824.769-.824h9.426c.549 0 .824.238.824.714v1.297c0 .476-.275.714-.824.714h-6.987v3.493h6.405c.549 0 .824.238.824.714V9.88c0 .476-.275.714-.824.714h-6.405v4.087h7.339c.549 0 .824.238.824.714v1.296c0 .476-.275.714-.824.714h-9.778ZM150.302 17.404c-.512 0-.769-.274-.769-.823V2.474c0-.55.257-.824.769-.824h4.109c2.637 0 4.464.429 5.482 1.286 1.026.856 1.538 2.072 1.538 3.647 0 1.575-.512 2.79-1.538 3.647-1.018.857-2.845 1.286-5.482 1.286h-1.67v5.065c0 .549-.256.823-.769.823h-1.67Zm2.439-8.569h1.659c1.465 0 2.461-.172 2.988-.516.528-.352.791-.93.791-1.736 0-.806-.263-1.38-.791-1.725-.527-.351-1.523-.527-2.988-.527h-1.659v4.504ZM163.673 10.846V2.254c0-.402.256-.604.769-.604h1.67c.513 0 .769.202.769.604v8.482c0 1.977.289 3.215.868 3.713.586.49 1.245.736 1.978.736.732 0 1.387-.245 1.966-.736.586-.498.879-1.736.879-3.713V2.254c0-.402.256-.604.769-.604h1.67c.513 0 .769.202.769.604v8.592c0 2.563-.542 4.361-1.626 5.394-1.084 1.025-2.56 1.538-4.427 1.538-1.868 0-3.344-.513-4.428-1.538-1.084-1.033-1.626-2.83-1.626-5.394ZM179.615 17.404c-.513 0-.769-.274-.769-.823V2.474c0-.55.256-.824.769-.824h9.426c.549 0 .824.238.824.714v1.297c0 .476-.275.714-.824.714h-6.987v3.493h6.405c.549 0 .824.238.824.714V9.88c0 .476-.275.714-.824.714h-6.405v4.087h7.338c.55 0 .824.238.824.714v1.296c0 .476-.274.714-.824.714h-9.777ZM192.645 16.229c-.454-.344-.564-.692-.33-1.044l.846-1.274c.279-.418.685-.44 1.22-.066.41.286.945.582 1.604.89.666.3 1.366.45 2.098.45.513 0 1.007-.058 1.483-.176.476-.117.839-.344 1.088-.68.249-.338.373-.737.373-1.198 0-.33-.054-.62-.164-.868a1.402 1.402 0 0 0-.539-.615 4.818 4.818 0 0 0-.769-.407 13.702 13.702 0 0 0-1.747-.56 21.343 21.343 0 0 1-2.065-.681 6.13 6.13 0 0 1-1.67-.967 4.631 4.631 0 0 1-1.175-1.384c-.279-.513-.418-1.198-.418-2.055 0-1.018.33-1.89.989-2.615.659-.725 1.417-1.19 2.274-1.395a11.102 11.102 0 0 1 2.593-.307 9.62 9.62 0 0 1 2.669.395c.923.264 1.619.593 2.088.989.461.388.575.74.34 1.055l-.889 1.197c-.301.41-.704.443-1.209.099-.322-.22-.765-.465-1.329-.736a3.944 3.944 0 0 0-1.747-.407c-.432 0-.831.037-1.198.11a1.854 1.854 0 0 0-.955.528 1.4 1.4 0 0 0-.418 1.032c0 .396.103.718.308.967.205.242.432.425.681.55.249.117.502.215.758.296.791.256 1.498.483 2.12.681.623.19 1.198.403 1.725.637.733.33 1.293.66 1.681.99.388.329.707.78.956 1.35.256.572.384 1.253.384 2.044 0 1.172-.373 2.142-1.12 2.911-.747.762-1.579 1.253-2.494 1.473-.908.227-1.795.34-2.659.34-1.274 0-2.311-.124-3.109-.373a7.251 7.251 0 0 1-2.274-1.176ZM205.818 4.463c-.549 0-.824-.238-.824-.715V2.364c0-.476.275-.714.824-.714h11.294c.549 0 .824.238.824.714v1.384c0 .477-.275.715-.824.715h-4.043V16.8c0 .403-.183.604-.549.604h-2.11c-.366 0-.549-.2-.549-.604V4.463h-4.043ZM218.804 9.527c0-2.527.652-4.533 1.956-6.02 1.303-1.487 3.164-2.23 5.581-2.23 2.417 0 4.277.743 5.581 2.23 1.304 1.487 1.955 3.493 1.955 6.02 0 2.527-.651 4.534-1.955 6.02-1.304 1.488-3.164 2.231-5.581 2.231-2.417 0-4.278-.743-5.581-2.23-1.304-1.487-1.956-3.494-1.956-6.02Zm3.428 0c0 1.831.326 3.234.978 4.208.659.967 1.703 1.45 3.131 1.45 1.428 0 2.468-.483 3.12-1.45.659-.974.989-2.377.989-4.208 0-1.83-.33-3.23-.989-4.196-.652-.975-1.692-1.462-3.12-1.462-1.428 0-2.472.487-3.131 1.462-.652.966-.978 2.365-.978 4.196ZM236.317 16.229c-.454-.344-.564-.692-.33-1.044l.846-1.274c.279-.418.685-.44 1.22-.066.41.286.945.582 1.604.89.666.3 1.366.45 2.098.45.513 0 1.007-.058 1.483-.176.476-.117.839-.344 1.088-.68.249-.338.373-.737.373-1.198 0-.33-.055-.62-.164-.868a1.402 1.402 0 0 0-.539-.615 4.818 4.818 0 0 0-.769-.407 13.702 13.702 0 0 0-1.747-.56 21.343 21.343 0 0 1-2.065-.681 6.13 6.13 0 0 1-1.67-.967 4.631 4.631 0 0 1-1.175-1.384c-.279-.513-.418-1.198-.418-2.055 0-1.018.33-1.89.989-2.615.659-.725 1.417-1.19 2.274-1.395a11.102 11.102 0 0 1 2.593-.307 9.62 9.62 0 0 1 2.669.395c.923.264 1.619.593 2.088.989.461.388.575.74.34 1.055l-.889 1.197c-.301.41-.704.443-1.209.099-.322-.22-.765-.465-1.329-.736a3.944 3.944 0 0 0-1.747-.407c-.432 0-.831.037-1.198.11a1.854 1.854 0 0 0-.955.528 1.4 1.4 0 0 0-.418 1.032c0 .396.103.718.308.967.205.242.432.425.681.55.249.117.502.215.758.296.791.256 1.498.483 2.12.681.623.19 1.198.403 1.725.637.733.33 1.293.66 1.681.99.388.329.707.78.956 1.35.256.572.384 1.253.384 2.044 0 1.172-.373 2.142-1.12 2.911-.747.762-1.579 1.253-2.494 1.473-.908.227-1.795.34-2.659.34-1.274 0-2.311-.124-3.109-.373a7.251 7.251 0 0 1-2.274-1.176Z"/><path fill="#D5434B" d="M77.527 38.404c-.513 0-.77-.274-.77-.824V23.474c0-.55.257-.824.77-.824h1.78c.44 0 .659.275.659.824V35.68h6.405c.55 0 .824.238.824.714v1.296c0 .477-.275.715-.824.715h-8.844ZM86.064 23.375c-.183-.483-.011-.725.516-.725h1.747c.49 0 .828.253 1.01.758l3.362 9.174c.169.468.268.783.297.945.03.153.062.413.099.78h.044c.037-.367.07-.627.099-.78.029-.162.128-.477.296-.945l3.362-9.174c.183-.505.52-.758 1.01-.758h1.748c.527 0 .699.242.516.725l-5.251 14.14c-.22.593-.564.89-1.033.89h-1.538c-.469 0-.813-.297-1.033-.89l-5.251-14.14ZM98.764 38.404c-.527 0-.7-.241-.516-.725l5.383-14.139c.227-.593.572-.89 1.033-.89h1.538c.461 0 .806.297 1.033.89l5.383 14.14c.183.483.011.724-.516.724h-1.747c-.484 0-.82-.252-1.011-.758l-1.12-2.955h-5.582l-1.12 2.955c-.191.506-.527.758-1.011.758h-1.747Zm4.9-6.438h3.538l-1.352-3.493c-.161-.41-.26-.707-.296-.89-.029-.19-.062-.469-.099-.835h-.044a10.06 10.06 0 0 1-.11.835c-.029.183-.124.48-.285.89l-1.352 3.494ZM114.893 38.404c-.513 0-.769-.274-.769-.824V23.474c0-.55.256-.824.769-.824h5.086c2.264 0 3.915.352 4.955 1.055 1.04.696 1.56 1.83 1.56 3.405 0 1.172-.421 2.106-1.263 2.802-.842.696-1.912 1.157-3.208 1.384v.022c.703.264 1.234.63 1.593 1.099s.652.879.879 1.23l2.417 3.813c.403.63.263.944-.418.944h-1.911c-.403 0-.733-.216-.989-.648l-2.219-3.702c-.242-.396-.685-.828-1.33-1.297-.637-.476-1.27-.714-1.9-.714h-.813v5.538c0 .549-.257.823-.769.823h-1.67Zm2.439-9.085h1.966c1.465 0 2.505-.165 3.12-.495.623-.337.934-.868.934-1.593 0-.79-.3-1.303-.901-1.538-.593-.241-1.468-.362-2.625-.362h-2.494v3.988ZM128.868 38.404c-.528 0-.7-.241-.517-.725l5.384-14.139c.227-.593.571-.89 1.032-.89h1.538c.462 0 .806.297 1.033.89l5.383 14.14c.184.483.011.724-.516.724h-1.747c-.483 0-.82-.252-1.01-.758l-1.121-2.955h-5.581l-1.121 2.955c-.19.506-.527.758-1.01.758h-1.747Zm4.9-6.438h3.537l-1.351-3.493c-.161-.41-.26-.707-.297-.89-.029-.19-.062-.469-.099-.835h-.044c-.036.366-.073.644-.109.835-.03.183-.125.48-.286.89l-1.351 3.494ZM144.996 38.404c-.513 0-.769-.274-.769-.824V23.474c0-.55.256-.824.769-.824h3.834c3.369 0 5.647.681 6.834 2.044 1.194 1.362 1.791 3.3 1.791 5.811 0 2.512-.597 4.457-1.791 5.834-1.187 1.377-3.465 2.066-6.834 2.066h-3.834Zm2.439-2.724h1.187c2.27 0 3.739-.421 4.405-1.264.667-.85 1-2.153 1-3.91 0-1.759-.333-3.055-1-3.89-.666-.842-2.135-1.263-4.405-1.263h-1.187V35.68ZM158.894 30.527c0-2.527.652-4.533 1.956-6.02 1.304-1.487 3.164-2.23 5.581-2.23 2.417 0 4.277.743 5.581 2.23 1.304 1.487 1.955 3.493 1.955 6.02 0 2.527-.651 4.534-1.955 6.02-1.304 1.488-3.164 2.231-5.581 2.231-2.417 0-4.277-.743-5.581-2.23-1.304-1.487-1.956-3.494-1.956-6.02Zm3.428 0c0 1.831.326 3.234.978 4.208.659.967 1.703 1.45 3.131 1.45 1.428 0 2.468-.483 3.12-1.45.659-.974.989-2.377.989-4.208 0-1.83-.33-3.23-.989-4.197-.652-.974-1.692-1.46-3.12-1.46-1.428 0-2.472.486-3.131 1.46-.652.967-.978 2.366-.978 4.197ZM183.647 37.229c-.454-.344-.564-.692-.329-1.044l.846-1.274c.278-.418.684-.44 1.219-.066.41.286.945.582 1.604.89.667.3 1.366.45 2.099.45.512 0 1.007-.058 1.483-.175.476-.118.838-.345 1.087-.682a1.96 1.96 0 0 0 .374-1.197c0-.33-.055-.62-.165-.868a1.4 1.4 0 0 0-.538-.615 4.86 4.86 0 0 0-.769-.407 13.808 13.808 0 0 0-1.747-.56 21.359 21.359 0 0 1-2.066-.681 6.14 6.14 0 0 1-1.669-.967 4.62 4.62 0 0 1-1.176-1.384c-.278-.513-.417-1.198-.417-2.055 0-1.018.329-1.89.988-2.615.659-.725 1.418-1.19 2.274-1.395a11.108 11.108 0 0 1 2.593-.307c.864 0 1.754.131 2.67.395.923.264 1.619.593 2.087.989.462.388.575.74.341 1.054l-.89 1.198c-.3.41-.703.443-1.208.099-.323-.22-.766-.465-1.33-.736a3.94 3.94 0 0 0-1.747-.407c-.432 0-.831.037-1.197.11a1.857 1.857 0 0 0-.956.527 1.404 1.404 0 0 0-.417 1.033c0 .396.102.718.307.967.205.242.432.425.681.55.249.117.502.215.758.296.791.256 1.498.483 2.121.681.622.19 1.197.403 1.725.637.732.33 1.292.66 1.68.99.389.329.707.78.956 1.35.257.572.385 1.253.385 2.044 0 1.172-.374 2.142-1.121 2.911-.747.762-1.578 1.253-2.494 1.472-.908.227-1.794.341-2.658.341-1.275 0-2.311-.124-3.11-.373a7.251 7.251 0 0 1-2.274-1.176ZM198.457 38.404c-.512 0-.769-.274-.769-.824v-1.472c0-.549.257-.824.769-.824h1.67c.513 0 .769.275.769.824v1.473c0 .549-.256.823-.769.823h-1.67ZM203.775 38.404c-.527 0-.699-.241-.516-.725l5.383-14.139c.227-.593.571-.89 1.033-.89h1.538c.461 0 .806.297 1.033.89l5.383 14.14c.183.483.011.724-.516.724h-1.747c-.484 0-.821-.252-1.011-.758l-1.121-2.955h-5.581l-1.12 2.955c-.191.506-.528.758-1.011.758h-1.747Zm4.9-6.438h3.538l-1.352-3.493c-.161-.41-.26-.707-.296-.89-.03-.19-.063-.469-.099-.835h-.044a10.06 10.06 0 0 1-.11.835c-.029.183-.124.48-.286.89l-1.351 3.494ZM220.211 38.404c-.513 0-.769-.274-.769-.824v-1.472c0-.549.256-.824.769-.824h1.67c.513 0 .769.275.769.824v1.473c0 .549-.256.823-.769.823h-1.67ZM225.21 30.527c0-2.527.641-4.533 1.923-6.02 1.282-1.487 3.131-2.23 5.548-2.23 1.392 0 2.571.216 3.538.648.966.432 1.648 1.058 2.043 1.878.264.542.22.909-.132 1.1l-1.318.702c-.462.25-.842.11-1.143-.417-.19-.337-.545-.641-1.065-.912-.513-.271-1.117-.407-1.813-.407-1.538 0-2.615.487-3.23 1.462-.615.966-.923 2.365-.923 4.196 0 1.831.308 3.234.923 4.208.615.967 1.692 1.45 3.23 1.45.828 0 1.523-.187 2.087-.56.572-.374.967-.729 1.187-1.066.359-.549.74-.688 1.142-.417l1.319.879c.359.241.395.608.11 1.098-.425.733-1.154 1.359-2.187 1.879-1.032.52-2.288.78-3.768.78-2.38 0-4.222-.743-5.526-2.23-1.296-1.487-1.945-3.494-1.945-6.02Z"/></svg>