<svg xmlns="http://www.w3.org/2000/svg" width="248" height="51" fill="none"><path fill="#fff" d="M72 39.477H47.6v-4.8H29.4l-14.6 14.6v1.2H0l42.6-42.6L72 0v39.477Zm-36.8-10.8h12.4v-12.2l-12.4 12.2ZM75.758 10.841V2.25c0-.403.256-.604.769-.604h1.67c.513 0 .769.201.769.604v8.481c0 1.978.29 3.216.868 3.714.586.49 1.245.736 1.977.736.733 0 1.388-.246 1.967-.736.586-.498.879-1.736.879-3.714V2.25c0-.403.256-.604.769-.604h1.67c.512 0 .769.201.769.604v8.591c0 2.564-.542 4.362-1.626 5.394-1.084 1.026-2.56 1.538-4.428 1.538-1.867 0-3.343-.512-4.427-1.538-1.084-1.032-1.626-2.83-1.626-5.394ZM90.37 4.458c-.55 0-.824-.238-.824-.714V2.36c0-.476.275-.714.824-.714h11.294c.549 0 .824.238.824.714v1.384c0 .476-.275.714-.824.714h-4.043v12.338c0 .403-.183.604-.55.604h-2.109c-.366 0-.549-.201-.549-.604V4.458H90.37ZM103.356 9.523c0-2.527.652-4.534 1.956-6.02 1.304-1.488 3.164-2.23 5.581-2.23 2.417 0 4.277.742 5.581 2.23 1.304 1.486 1.956 3.493 1.956 6.02 0 2.527-.652 4.534-1.956 6.02-1.304 1.487-3.164 2.23-5.581 2.23-2.417 0-4.277-.743-5.581-2.23-1.304-1.486-1.956-3.493-1.956-6.02Zm3.428 0c0 1.83.326 3.233.978 4.208.659.966 1.703 1.45 3.131 1.45 1.428 0 2.468-.484 3.12-1.45.659-.975.989-2.377.989-4.208 0-1.831-.33-3.23-.989-4.197-.652-.974-1.692-1.461-3.12-1.461-1.428 0-2.472.487-3.131 1.461-.652.967-.978 2.366-.978 4.197ZM121.451 17.4c-.512 0-.769-.275-.769-.824V2.47c0-.55.257-.824.769-.824h5.087c2.263 0 3.915.351 4.955 1.054 1.04.696 1.56 1.831 1.56 3.406 0 1.172-.421 2.106-1.264 2.802-.842.695-1.911 1.157-3.208 1.384v.022c.704.264 1.235.63 1.593 1.098.359.47.652.88.879 1.23l2.417 3.813c.403.63.264.945-.417.945h-1.912c-.403 0-.732-.216-.989-.648l-2.219-3.703c-.241-.395-.685-.827-1.329-1.296-.637-.476-1.271-.714-1.901-.714h-.813v5.537c0 .55-.256.824-.769.824h-1.67Zm2.439-9.086h1.967c1.465 0 2.505-.164 3.12-.494.622-.337.934-.868.934-1.593 0-.791-.301-1.304-.901-1.538-.593-.242-1.469-.363-2.626-.363h-2.494v3.988ZM136.69 17.4c-.513 0-.769-.275-.769-.824V2.47c0-.55.256-.824.769-.824h9.426c.549 0 .824.238.824.714v1.296c0 .476-.275.714-.824.714h-6.987v3.494h6.405c.549 0 .824.238.824.714v1.296c0 .476-.275.714-.824.714h-6.405v4.087h7.339c.549 0 .824.238.824.714v1.297c0 .476-.275.714-.824.714h-9.778ZM150.302 17.4c-.512 0-.769-.275-.769-.824V2.47c0-.55.257-.824.769-.824h4.109c2.637 0 4.464.428 5.482 1.285 1.026.857 1.538 2.073 1.538 3.647 0 1.575-.512 2.791-1.538 3.648-1.018.857-2.845 1.285-5.482 1.285h-1.67v5.065c0 .55-.256.824-.769.824h-1.67Zm2.439-8.57h1.659c1.465 0 2.461-.171 2.988-.516.528-.351.791-.93.791-1.736 0-.805-.263-1.38-.791-1.724-.527-.352-1.523-.528-2.988-.528h-1.659v4.505ZM163.673 10.841V2.25c0-.403.256-.604.769-.604h1.67c.513 0 .769.201.769.604v8.481c0 1.978.289 3.216.868 3.714.586.49 1.245.736 1.978.736.732 0 1.387-.246 1.966-.736.586-.498.879-1.736.879-3.714V2.25c0-.403.256-.604.769-.604h1.67c.513 0 .769.201.769.604v8.591c0 2.564-.542 4.362-1.626 5.394-1.084 1.026-2.56 1.538-4.427 1.538-1.868 0-3.344-.512-4.428-1.538-1.084-1.032-1.626-2.83-1.626-5.394ZM179.615 17.4c-.513 0-.769-.275-.769-.824V2.47c0-.55.256-.824.769-.824h9.426c.549 0 .824.238.824.714v1.296c0 .476-.275.714-.824.714h-6.987v3.494h6.405c.549 0 .824.238.824.714v1.296c0 .476-.275.714-.824.714h-6.405v4.087h7.338c.55 0 .824.238.824.714v1.297c0 .476-.274.714-.824.714h-9.777ZM192.645 16.224c-.454-.344-.564-.692-.33-1.043l.846-1.275c.279-.417.685-.44 1.22-.066.41.286.945.583 1.604.89.666.3 1.366.45 2.098.45.513 0 1.007-.058 1.483-.175.476-.117.839-.344 1.088-.681.249-.337.373-.736.373-1.198 0-.33-.054-.619-.164-.868a1.402 1.402 0 0 0-.539-.615 4.818 4.818 0 0 0-.769-.406 13.702 13.702 0 0 0-1.747-.56 21.343 21.343 0 0 1-2.065-.682 6.13 6.13 0 0 1-1.67-.967 4.631 4.631 0 0 1-1.175-1.384c-.279-.513-.418-1.197-.418-2.054 0-1.018.33-1.89.989-2.615.659-.725 1.417-1.19 2.274-1.395a11.102 11.102 0 0 1 2.593-.308 9.62 9.62 0 0 1 2.669.396c.923.263 1.619.593 2.088.988.461.389.575.74.34 1.055l-.889 1.198c-.301.41-.704.443-1.209.098-.322-.22-.765-.465-1.329-.736a3.944 3.944 0 0 0-1.747-.406c-.432 0-.831.036-1.198.11a1.854 1.854 0 0 0-.955.527 1.4 1.4 0 0 0-.418 1.033c0 .395.103.718.308.967.205.241.432.424.681.549.249.117.502.216.758.296a403.2 403.2 0 0 0 2.12.682c.623.19 1.198.402 1.725.637.733.33 1.293.659 1.681.989.388.33.707.78.956 1.351.256.571.384 1.252.384 2.043 0 1.172-.373 2.143-1.12 2.912-.747.761-1.579 1.252-2.494 1.472-.908.227-1.795.34-2.659.34-1.274 0-2.311-.124-3.109-.373a7.253 7.253 0 0 1-2.274-1.175ZM205.818 4.458c-.549 0-.824-.238-.824-.714V2.36c0-.476.275-.714.824-.714h11.294c.549 0 .824.238.824.714v1.384c0 .476-.275.714-.824.714h-4.043v12.338c0 .403-.183.604-.549.604h-2.11c-.366 0-.549-.201-.549-.604V4.458h-4.043ZM218.804 9.523c0-2.527.652-4.534 1.956-6.02 1.303-1.488 3.164-2.23 5.581-2.23 2.417 0 4.277.742 5.581 2.23 1.304 1.486 1.955 3.493 1.955 6.02 0 2.527-.651 4.534-1.955 6.02-1.304 1.487-3.164 2.23-5.581 2.23-2.417 0-4.278-.743-5.581-2.23-1.304-1.486-1.956-3.493-1.956-6.02Zm3.428 0c0 1.83.326 3.233.978 4.208.659.966 1.703 1.45 3.131 1.45 1.428 0 2.468-.484 3.12-1.45.659-.975.989-2.377.989-4.208 0-1.831-.33-3.23-.989-4.197-.652-.974-1.692-1.461-3.12-1.461-1.428 0-2.472.487-3.131 1.461-.652.967-.978 2.366-.978 4.197ZM236.317 16.224c-.454-.344-.564-.692-.33-1.043l.846-1.275c.279-.417.685-.44 1.22-.066.41.286.945.583 1.604.89.666.3 1.366.45 2.098.45.513 0 1.007-.058 1.483-.175.476-.117.839-.344 1.088-.681.249-.337.373-.736.373-1.198 0-.33-.055-.619-.164-.868a1.402 1.402 0 0 0-.539-.615 4.818 4.818 0 0 0-.769-.406 13.702 13.702 0 0 0-1.747-.56 21.343 21.343 0 0 1-2.065-.682 6.13 6.13 0 0 1-1.67-.967 4.631 4.631 0 0 1-1.175-1.384c-.279-.513-.418-1.197-.418-2.054 0-1.018.33-1.89.989-2.615.659-.725 1.417-1.19 2.274-1.395a11.102 11.102 0 0 1 2.593-.308 9.62 9.62 0 0 1 2.669.396c.923.263 1.619.593 2.088.988.461.389.575.74.34 1.055l-.889 1.198c-.301.41-.704.443-1.209.098-.322-.22-.765-.465-1.329-.736a3.944 3.944 0 0 0-1.747-.406c-.432 0-.831.036-1.198.11a1.854 1.854 0 0 0-.955.527 1.4 1.4 0 0 0-.418 1.033c0 .395.103.718.308.967.205.241.432.424.681.549.249.117.502.216.758.296a403.2 403.2 0 0 0 2.12.682c.623.19 1.198.402 1.725.637.733.33 1.293.659 1.681.989.388.33.707.78.956 1.351.256.571.384 1.252.384 2.043 0 1.172-.373 2.143-1.12 2.912-.747.761-1.579 1.252-2.494 1.472-.908.227-1.795.34-2.659.34-1.274 0-2.311-.124-3.109-.373a7.253 7.253 0 0 1-2.274-1.175Z"/><path fill="#D5434B" d="M77.527 38.4c-.513 0-.77-.275-.77-.824V23.47c0-.55.257-.824.77-.824h1.78c.44 0 .659.274.659.824v12.205h6.405c.55 0 .824.238.824.715v1.296c0 .476-.275.714-.824.714h-8.844ZM86.064 23.37c-.183-.483-.011-.724.516-.724h1.747c.49 0 .828.252 1.01.758l3.362 9.173c.169.469.268.784.297.945.03.154.062.414.099.78h.044c.037-.366.07-.626.099-.78.029-.161.128-.476.296-.945l3.362-9.173c.183-.506.52-.758 1.01-.758h1.748c.527 0 .699.241.516.725l-5.251 14.14c-.22.592-.564.889-1.033.889h-1.538c-.469 0-.813-.297-1.033-.89l-5.251-14.14ZM98.764 38.4c-.527 0-.7-.242-.516-.725l5.383-14.14c.227-.593.572-.89 1.033-.89h1.538c.461 0 .806.297 1.033.89l5.383 14.14c.183.483.011.725-.516.725h-1.747c-.484 0-.82-.253-1.011-.758l-1.12-2.955h-5.582l-1.12 2.955c-.191.505-.527.758-1.011.758h-1.747Zm4.9-6.438h3.538l-1.352-3.494c-.161-.41-.26-.706-.296-.89-.029-.19-.062-.468-.099-.834h-.044a10.06 10.06 0 0 1-.11.834c-.029.184-.124.48-.285.89l-1.352 3.494ZM114.893 38.4c-.513 0-.769-.275-.769-.824V23.47c0-.55.256-.824.769-.824h5.086c2.264 0 3.915.351 4.955 1.054 1.04.696 1.56 1.831 1.56 3.406 0 1.172-.421 2.106-1.263 2.802-.842.695-1.912 1.157-3.208 1.384v.022c.703.264 1.234.63 1.593 1.098.359.47.652.88.879 1.23l2.417 3.813c.403.63.263.945-.418.945h-1.911c-.403 0-.733-.216-.989-.648l-2.219-3.703c-.242-.395-.685-.827-1.33-1.296-.637-.476-1.27-.714-1.9-.714h-.813v5.537c0 .55-.257.824-.769.824h-1.67Zm2.439-9.086h1.966c1.465 0 2.505-.165 3.12-.494.623-.337.934-.868.934-1.593 0-.791-.3-1.304-.901-1.538-.593-.242-1.468-.363-2.625-.363h-2.494v3.988ZM128.868 38.4c-.528 0-.7-.242-.517-.725l5.384-14.14c.227-.593.571-.89 1.032-.89h1.538c.462 0 .806.297 1.033.89l5.383 14.14c.184.483.011.725-.516.725h-1.747c-.483 0-.82-.253-1.01-.758l-1.121-2.955h-5.581l-1.121 2.955c-.19.505-.527.758-1.01.758h-1.747Zm4.9-6.438h3.537l-1.351-3.494c-.161-.41-.26-.706-.297-.89-.029-.19-.062-.468-.099-.834h-.044c-.036.366-.073.644-.109.834-.03.184-.125.48-.286.89l-1.351 3.494ZM144.996 38.4c-.513 0-.769-.275-.769-.824V23.47c0-.55.256-.824.769-.824h3.834c3.369 0 5.647.68 6.834 2.043 1.194 1.362 1.791 3.3 1.791 5.812 0 2.512-.597 4.457-1.791 5.834-1.187 1.377-3.465 2.065-6.834 2.065h-3.834Zm2.439-2.725h1.187c2.27 0 3.739-.42 4.405-1.263.667-.85 1-2.153 1-3.911s-.333-3.054-1-3.89c-.666-.842-2.135-1.263-4.405-1.263h-1.187v10.327ZM158.894 30.523c0-2.527.652-4.534 1.956-6.02 1.304-1.488 3.164-2.23 5.581-2.23 2.417 0 4.277.742 5.581 2.23 1.304 1.486 1.955 3.493 1.955 6.02 0 2.527-.651 4.534-1.955 6.02-1.304 1.487-3.164 2.23-5.581 2.23-2.417 0-4.277-.743-5.581-2.23-1.304-1.486-1.956-3.493-1.956-6.02Zm3.428 0c0 1.83.326 3.233.978 4.208.659.966 1.703 1.45 3.131 1.45 1.428 0 2.468-.484 3.12-1.45.659-.975.989-2.377.989-4.208 0-1.831-.33-3.23-.989-4.197-.652-.974-1.692-1.461-3.12-1.461-1.428 0-2.472.487-3.131 1.461-.652.967-.978 2.366-.978 4.197ZM183.647 37.224c-.454-.344-.564-.692-.329-1.043l.846-1.275c.278-.417.684-.44 1.219-.066.41.286.945.583 1.604.89.667.3 1.366.45 2.099.45.512 0 1.007-.058 1.483-.175.476-.117.838-.344 1.087-.681a1.96 1.96 0 0 0 .374-1.198c0-.33-.055-.619-.165-.868a1.4 1.4 0 0 0-.538-.615 4.86 4.86 0 0 0-.769-.406 13.808 13.808 0 0 0-1.747-.56 21.359 21.359 0 0 1-2.066-.682 6.14 6.14 0 0 1-1.669-.967 4.62 4.62 0 0 1-1.176-1.384c-.278-.513-.417-1.197-.417-2.054 0-1.018.329-1.89.988-2.615.659-.725 1.418-1.19 2.274-1.395a11.108 11.108 0 0 1 2.593-.308c.864 0 1.754.132 2.67.396.923.263 1.619.593 2.087.988.462.389.575.74.341 1.055l-.89 1.198c-.3.41-.703.443-1.208.098-.323-.22-.766-.465-1.33-.736a3.94 3.94 0 0 0-1.747-.406c-.432 0-.831.037-1.197.11a1.857 1.857 0 0 0-.956.527 1.404 1.404 0 0 0-.417 1.033c0 .395.102.718.307.967.205.241.432.424.681.549.249.117.502.216.758.297.791.256 1.498.483 2.121.68.622.191 1.197.404 1.725.638.732.33 1.292.659 1.68.989.389.33.707.78.956 1.351.257.571.385 1.252.385 2.043 0 1.172-.374 2.143-1.121 2.912-.747.761-1.578 1.252-2.494 1.472-.908.227-1.794.34-2.658.34-1.275 0-2.311-.124-3.11-.373a7.253 7.253 0 0 1-2.274-1.175ZM198.457 38.4c-.512 0-.769-.275-.769-.824v-1.472c0-.55.257-.824.769-.824h1.67c.513 0 .769.274.769.824v1.472c0 .55-.256.824-.769.824h-1.67ZM203.775 38.4c-.527 0-.699-.242-.516-.725l5.383-14.14c.227-.593.571-.89 1.033-.89h1.538c.461 0 .806.297 1.033.89l5.383 14.14c.183.483.011.725-.516.725h-1.747c-.484 0-.821-.253-1.011-.758l-1.121-2.955h-5.581l-1.12 2.955c-.191.505-.528.758-1.011.758h-1.747Zm4.9-6.438h3.538l-1.352-3.494c-.161-.41-.26-.706-.296-.89-.03-.19-.063-.468-.099-.834h-.044a10.06 10.06 0 0 1-.11.834c-.029.184-.124.48-.286.89l-1.351 3.494ZM220.211 38.4c-.513 0-.769-.275-.769-.824v-1.472c0-.55.256-.824.769-.824h1.67c.513 0 .769.274.769.824v1.472c0 .55-.256.824-.769.824h-1.67ZM225.21 30.523c0-2.527.641-4.534 1.923-6.02 1.282-1.488 3.131-2.23 5.548-2.23 1.392 0 2.571.215 3.538.647.966.432 1.648 1.059 2.043 1.879.264.542.22.908-.132 1.099l-1.318.703c-.462.249-.842.11-1.143-.418-.19-.337-.545-.64-1.065-.912-.513-.27-1.117-.406-1.813-.406-1.538 0-2.615.487-3.23 1.461-.615.967-.923 2.366-.923 4.197 0 1.83.308 3.233.923 4.208.615.966 1.692 1.45 3.23 1.45.828 0 1.523-.187 2.087-.56.572-.374.967-.73 1.187-1.066.359-.55.74-.689 1.142-.418l1.319.88c.359.24.395.607.11 1.098-.425.732-1.154 1.358-2.187 1.878-1.032.52-2.288.78-3.768.78-2.38 0-4.222-.743-5.526-2.23-1.296-1.486-1.945-3.493-1.945-6.02Z"/></svg>